PathFileType	4	(X/Y/Z)	Patient4_TMGait_0pt3_03_right_20.trc.trc
DataRate	CameraRate	NumFrames	NumMarkers	Units	OrigDataRate	OrigDataStartFrame	OrigNumFrames
57.613168724280	57.613168724280	4	33	mm	57.613168724280	124	       141
Frame#	Time	Sacral			L.Shoulder			Chest			R.Shoulder			Neck			R.ASIS			L.ASIS			R.Thigh.Superior			R.Thigh.Lateral			R.Thigh.Inferior			R.Patella			L.Thigh.Superior			L.Thigh.Lateral			L.Thigh.Inferior			L.Patella			L.Shank.Superior			L.Shank.Lateral			L.Shank.Inferior			R.Shank.Superior			R.Shank.Lateral			R.Shank.Inferior			R.Heel			R.Midfoot.Superior			R.Midfoot.Lateral			R.Toe			L.Heel			L.Midfoot.Lateral			L.Midfoot.Superior			L.Toe			L.Elbow			L.Wrist			R.Elbow			R.Wrist			
		X1	Y1	Z1	X2	Y2	Z2	X3	Y3	Z3	X4	Y4	Z4	X5	Y5	Z5	X6	Y6	Z6	X7	Y7	Z7	X8	Y8	Z8	X9	Y9	Z9	X10	Y10	Z10	X11	Y11	Z11	X12	Y12	Z12	X13	Y13	Z13	X14	Y14	Z14	X15	Y15	Z15	X16	Y16	Z16	X17	Y17	Z17	X18	Y18	Z18	X19	Y19	Z19	X20	Y20	Z20	X21	Y21	Z21	X22	Y22	Z22	X23	Y23	Z23	X24	Y24	Z24	X25	Y25	Z25	X26	Y26	Z26	X27	Y27	Z27	X28	Y28	Z28	X29	Y29	Z29	X30	Y30	Z30	X31	Y31	Z31	X32	Y32	Z32	X33	Y33	Z33	

124	39.654928571429	725.210160896935	1016.229807166585	434.606464939422	969.468664288333	1424.813944334811	288.095340386949	1026.535764182438	1360.164587505210	470.395427842243	910.630414621775	1445.194162286147	618.658163072501	906.736101202768	1492.694463772729	436.338132702409	919.499586862297	940.621498146239	600.575562803417	965.617867597484	954.334094539300	329.566420322974	976.307264475744	750.006593599954	581.939781093438	900.273985580093	637.469422364259	641.066881163979	990.789019390283	590.376598222565	571.033835686740	1004.019281165347	508.871277476444	584.540635469689	956.165269035708	725.263281557099	357.705170190556	851.750086708389	631.311298631585	276.501228036004	902.472455148937	539.304364184743	349.873919740269	885.931676658071	476.273740728595	356.548528752710	856.135902436310	410.358399088345	343.801904000644	762.640544699655	304.512268866307	282.732280610380	794.043808030190	189.000221314564	358.328170598271	985.804842338727	418.550007063577	596.304610592534	922.394234692893	310.979364585478	661.840266248886	984.229573831783	218.340960883055	611.446663439997	873.835465773470	40.739052014958	590.923457976905	1041.989541336274	104.133087341929	622.905886875989	960.371522266186	35.935093084757	661.733817920188	1164.617113690643	61.450455508081	645.012917963549	651.729810700584	38.851065634871	389.994856320247	730.355846228385	35.178120267532	313.864670294215	813.271569202119	95.053670644990	346.449483868983	942.339105941230	40.300574623028	324.269770136168	1061.722288715267	1094.908616479233	158.790737136451	1313.929627754847	1033.534789579763	172.410511889734	739.505773031627	1139.781603784776	702.997680417170	695.799355862265	881.989310354190	714.659800202707	
125	39.672285714286	726.442674618188	1014.756867063790	439.288178828369	968.197664554191	1424.408946179896	293.455088904200	1026.275871348676	1359.666884302577	475.452014597615	910.591280334368	1443.918137062870	624.371617457312	905.898133193470	1491.846778200933	442.029367159061	921.483170355115	939.045160645051	604.484327425150	966.643588034666	954.005400621629	333.471948029288	978.580313475009	748.438889282919	584.518537693287	901.878434643837	635.560323308462	642.317953563625	992.783712582824	589.061407808479	572.406194800164	1004.702092022088	506.925374531429	584.764160697802	956.490254935477	724.289447184225	360.247364130615	850.662508947303	631.202906688089	279.240026712263	900.963174913627	538.553576378761	351.868511881624	883.985098075204	475.403484137386	358.392194279132	853.505375669123	409.784007478500	345.436045546570	758.803292358489	305.048234273358	284.041273419354	789.658303581811	188.808918080656	358.807170725754	986.394939750256	416.451353424923	596.246394616482	922.708556329911	309.210263187402	661.685448530607	982.993776061181	216.411083263800	610.105964093989	870.332588216149	41.240569823993	589.459950236347	1039.428296992774	102.344695328451	621.064609069836	956.572871309263	36.021369627059	660.461657123465	1161.315727654628	57.645382505697	643.437161146204	646.511143647137	39.027851068878	390.001314610544	725.165254337017	35.268479442401	313.950886543535	808.153384678717	95.114740786129	346.502512004560	937.165340503965	40.192836698523	324.258862709774	1060.507114272268	1094.273262208156	164.009897675422	1313.511140866338	1035.878746658346	175.776273150202	741.459786837572	1137.200759050606	708.045585524317	697.716618327435	879.355623125670	718.925872391296	
126	39.689642857143	727.759894950958	1013.600625471760	444.121977368534	967.035787370632	1424.433276219249	298.955279800117	1026.140759926137	1359.467982988257	480.600697743533	910.678250616403	1442.860887543516	630.208062102965	905.126611580385	1491.306702584686	447.914312318157	923.695463401418	937.949751643380	608.448869958780	967.693572875024	953.935716871510	337.422803464567	981.165412032068	747.295826080383	586.894113040860	904.136924799614	634.245953942444	643.844911329388	995.009549115585	588.067918702442	573.734028438523	1005.759621227371	505.162181034975	585.220278843108	957.134936461811	723.571763244558	362.987658383215	850.098568214717	631.157239968175	282.254625480732	900.228070757518	537.931192441037	354.117100253168	882.913745999743	474.480723845563	360.492272554909	851.567902781579	409.187054965101	347.293061751741	755.431867858451	305.789441711163	285.570027618096	785.561191894070	188.704478502193	359.348200934460	986.931178174141	414.586233458171	596.407678451871	922.704190767869	307.910635791683	661.949324654949	980.896676836058	214.696736832746	609.070859323155	865.372563882318	41.882675482853	588.402884102674	1035.395154594118	100.815218404530	619.629593612915	951.348411644688	36.277344683704	659.617919860169	1156.653324710884	54.213619353111	642.380308314993	641.345362720564	39.482812441239	389.991374828043	720.040278639238	35.508551557444	314.052697335965	803.173379932144	95.245867240484	346.543020123079	932.051152478671	40.025120602156	324.232001386643	1058.904460511382	1093.874603453347	169.385833757202	1312.537860400438	1037.724101482059	179.240663714249	743.703599900922	1134.781036351162	713.523289877510	700.374314909414	876.850685338632	723.982944812220	
127	39.707000000000	729.105026437946	1012.795866601965	449.082000985101	966.016410857302	1424.867917022922	304.507151540426	1026.125426094744	1359.565371296425	485.764182426295	910.893071735246	1442.075451942703	636.062801699472	904.446143375510	1491.090196998727	453.881259005937	926.023108444207	937.352766261505	612.474502410139	968.713248724508	954.115607072875	341.418725120285	983.804916592397	746.535729763588	589.173589892034	906.754172405414	633.493818404570	645.747746045632	997.162015013202	587.358428260557	575.110709010605	1006.909553697013	503.646496830670	585.995792802102	958.046585652376	723.137697424979	365.964914430272	850.080687866515	631.181992329259	285.518014719809	900.296787491832	537.444040467494	356.601820901229	882.764335717978	473.516192796971	362.802312815588	850.355907041179	408.588273880208	349.339494261374	752.571196023782	306.763618232940	287.298913522146	781.778539002716	188.725133793166	359.940557857422	987.270257156685	413.012763441000	596.869247650802	922.371492392156	307.008025213928	662.651985736682	978.171583122561	213.239045994240	608.415502675564	859.552616840343	42.503747803629	587.772795066027	1030.391540575533	99.589287703190	618.643039074530	945.322753952178	36.583677746310	659.185329940068	1151.183864172466	51.353815638057	641.800377139491	636.251331885554	40.314067921127	389.962658240355	714.991959806976	35.954585213237	314.161986275864	798.360512581345	95.461602592573	346.565697061352	926.996281529408	39.794251981666	324.191360630214	1056.983624429147	1093.729521034411	174.833481856253	1311.074639988484	1039.048055113844	182.825136484677	746.177388457034	1132.621402392408	719.342184873941	703.709969164361	874.573536229468	729.751074678374	
